<?xml version="1.0" encoding="UTF-8"?>
<svg id="Layer_2" data-name="Layer 2" xmlns="http://www.w3.org/2000/svg" viewBox="0 0 376.9 114.15">
  <defs>
    <style>
      .cls-1 {
        fill: #0eb2af;
      }

      .cls-2 {
        fill: #1f476a;
      }
    </style>
  </defs>
  <g id="Layer_1-2" data-name="Layer 1">
    <g>
      <path class="cls-2" d="M303.28,59.85c-.03,3.29-.44,6.23-1.2,8.72-.75,2.33-2.05,4.56-3.85,6.61-2.49,2.79-5.4,4.77-8.67,5.87-.23.07-.47.15-.71.22-.55.16-1.12.3-1.68.42-1.48.3-3.07.46-4.72.46-3.27,0-6.32-.62-9.08-1.85-2.53-1.12-4.89-2.78-7.02-4.94-4.52-4.6-6.72-9.97-6.72-16.41s2.24-12,6.84-16.58c4.6-4.6,10.04-6.83,16.64-6.83,3.14,0,6.13.58,8.86,1.71l-1.31,2.74c-2.31-1-4.8-1.51-7.42-1.51-5.69,0-10.54,2-14.39,5.92-3.87,3.87-5.83,8.76-5.83,14.55s2.19,11.01,6.51,14.91c1.69,1.51,3.46,2.72,5.28,3.59,2.51,1.21,5.16,1.81,7.89,1.81.46,0,.92-.01,1.36-.05,3.53-.27,6.76-1.62,9.62-4.02l.08-.07c3.28-2.8,5.13-6.22,5.52-10.16l.21-2.2h-6.39l1.4-2.91h8.78Z"/>
      <polygon class="cls-2" points="350.74 80.52 347.32 80.54 330 44.31 312.46 80.69 308.95 80.71 329.98 37.09 350.74 80.52"/>
      <polygon class="cls-1" points="333.12 69.72 326.65 69.75 329.91 62.99 333.12 69.72"/>
      <polygon class="cls-2" points="215.42 80.53 212 80.54 194.69 44.31 177.14 80.69 173.63 80.71 194.67 37.09 215.42 80.53"/>
      <path class="cls-2" d="M237,61.06l10.27,20.16h-3.31l-6.45-12.56-4.68-9.79h1.5c1.59,0,2.95-.12,4.13-.36,5.37-1.03,8.32-4.44,8.32-9.62,0-3.08-1.07-5.47-3.18-7.1-2.02-1.59-4.89-2.37-8.79-2.4h-19.17l-1.39-2.9h19.01c1.53,0,2.91.07,4.24.21,2.58.27,4.76.83,6.44,1.65.75.38,1.41.81,1.97,1.28,2.71,2.32,4.03,5.32,4.03,9.16,0,3.03-.83,5.54-2.52,7.66-1.67,2.1-3.92,3.46-6.69,4.06l-3.73.55Z"/>
      <polygon class="cls-2" points="176.07 36.47 174.66 39.39 152.62 39.39 152.62 81.23 149.26 81.23 149.26 39.39 130.72 39.39 132.12 36.48 176.07 36.47"/>
      <path class="cls-1" d="M362.93,32.01l-7.73,16.61h2.54l1.74-3.79.98-2.22,2.43-5.31,2.32,5.31.96,2.22,1.64,3.79h2.58l-7.46-16.61Z"/>
      <rect class="cls-1" x="374.54" y="32.99" width="2.36" height="15.63"/>
      <polygon class="cls-1" points="197.75 69.72 191.28 69.75 194.53 62.99 197.75 69.72"/>
    </g>
    <g id="uuid-ca1f77a3-e370-4263-af42-a5051946883f" data-name="Layer 1-2">
      <polygon class="cls-1" points="65.93 88.62 43.68 88.72 54.88 65.52 65.93 88.62"/>
      <polygon class="cls-2" points="109.38 113.68 89.68 113.76 55.04 41.28 19.95 114.06 0 114.15 44.35 22.18 51.67 6.97 55.04 0 109.38 113.68"/>
    </g>
  </g>
</svg>