<?xml version="1.0" encoding="UTF-8"?>
<svg id="Layer_1" data-name="Layer 1" xmlns="http://www.w3.org/2000/svg" xmlns:xlink="http://www.w3.org/1999/xlink" viewBox="0 0 360 249.89">
  <defs>
    <style>
      .cls-1 {
        fill: url(#linear-gradient);
      }
    </style>
    <linearGradient id="linear-gradient" x1="176.77" y1="215.34" x2="176.77" y2="-54.62" gradientUnits="userSpaceOnUse">
      <stop offset=".1" stop-color="#202644"/>
      <stop offset=".3" stop-color="#1f2a48"/>
      <stop offset=".52" stop-color="#1f3655"/>
      <stop offset=".72" stop-color="#1f4769"/>
    </linearGradient>
  </defs>
  <path class="cls-1" d="M148.88,156.83l-21.01,32.82H41.79V17.98h41.44v138.85h65.65ZM256.56,102.54l54.4-84.56h-45l-32.68,52.95h-3.75l-32.19-52.95h-46.78l54.16,85.59-35.26,55.03-19.9,31.06h44.73l33.47-54.47h4.01l33.18,54.47h46.79l-55.19-87.12Z"/>
  <g>
    <g>
      <path d="M27.66,240.78v-18.15h-6.43v-2.25h15.45v2.25h-6.46v18.15h-2.55Z"/>
      <path d="M40.11,240.78v-22.03h2.43v8.9h.15c.2-.42.48-.79.86-1.13.38-.34.89-.6,1.54-.79.65-.19,1.48-.28,2.49-.28,1.11,0,2,.11,2.68.34s1.21.58,1.57,1.05c.37.47.61,1.08.73,1.82s.18,1.63.18,2.65v9.46h-2.4v-8.63c0-1.03-.04-1.84-.13-2.45-.09-.6-.26-1.06-.52-1.36-.26-.31-.63-.51-1.13-.61-.49-.1-1.15-.15-1.96-.15-.97,0-1.73.12-2.28.37-.55.25-.96.6-1.22,1.07-.26.46-.42,1.03-.47,1.69-.06.66-.09,1.42-.09,2.27v7.8h-2.43Z"/>
      <path d="M64.04,241.02c-1.23,0-2.25-.08-3.07-.24-.82-.16-1.48-.42-1.97-.79-.49-.37-.87-.85-1.13-1.45-.26-.6-.43-1.34-.5-2.21-.08-.87-.12-1.9-.12-3.08,0-1.4.06-2.6.18-3.6.12-1,.39-1.81.82-2.43.42-.62,1.09-1.08,2-1.36.91-.29,2.13-.43,3.68-.43,1.17,0,2.12.09,2.86.27.74.18,1.33.46,1.76.83.43.38.76.88.96,1.5.21.62.34,1.36.4,2.22.06.86.09,1.85.09,2.98v.8h-10.35c0,1.03.05,1.87.15,2.52.1.65.3,1.16.61,1.51.31.36.79.6,1.45.74.66.14,1.57.21,2.71.21.47,0,1-.02,1.57-.04.57-.03,1.15-.07,1.72-.13.57-.06,1.09-.12,1.54-.18v1.96c-.42.08-.92.15-1.53.21-.6.06-1.24.11-1.9.15-.66.04-1.31.06-1.94.06ZM67.66,232.8v-.8c0-1.03-.06-1.84-.18-2.45-.12-.6-.32-1.06-.61-1.36-.29-.31-.68-.51-1.17-.61-.49-.1-1.11-.15-1.84-.15-.95,0-1.7.06-2.25.19-.55.13-.97.36-1.25.7-.28.34-.46.82-.56,1.45-.1.63-.15,1.47-.15,2.52h8.57l-.56.5Z"/>
      <path d="M81.83,240.78v-20.4h2.55v18.15h9.52v2.25h-12.07Z"/>
      <path d="M103.54,241.02c-1.23,0-2.25-.08-3.07-.24-.82-.16-1.48-.42-1.97-.79-.49-.37-.87-.85-1.13-1.45-.26-.6-.43-1.34-.5-2.21-.08-.87-.12-1.9-.12-3.08,0-1.4.06-2.6.18-3.6.12-1,.39-1.81.82-2.43.42-.62,1.09-1.08,2-1.36.91-.29,2.13-.43,3.68-.43,1.17,0,2.12.09,2.86.27.74.18,1.33.46,1.76.83.43.38.76.88.96,1.5.21.62.34,1.36.4,2.22.06.86.09,1.85.09,2.98v.8h-10.35c0,1.03.05,1.87.15,2.52.1.65.3,1.16.61,1.51.31.36.79.6,1.45.74.66.14,1.57.21,2.71.21.47,0,1-.02,1.57-.04.57-.03,1.15-.07,1.72-.13.57-.06,1.09-.12,1.54-.18v1.96c-.42.08-.92.15-1.53.21-.6.06-1.24.11-1.9.15-.66.04-1.31.06-1.94.06ZM107.15,232.8v-.8c0-1.03-.06-1.84-.18-2.45-.12-.6-.32-1.06-.61-1.36-.29-.31-.68-.51-1.17-.61-.49-.1-1.11-.15-1.84-.15-.95,0-1.7.06-2.25.19-.55.13-.97.36-1.25.7-.28.34-.46.82-.56,1.45-.1.63-.15,1.47-.15,2.52h8.57l-.56.5Z"/>
      <path d="M118.01,241.02c-1.11,0-2.03-.13-2.77-.39-.74-.26-1.29-.7-1.66-1.33-.37-.63-.55-1.52-.55-2.67s.13-2.05.4-2.71c.27-.66.74-1.13,1.41-1.41.67-.28,1.61-.41,2.82-.41.2,0,.51,0,.93.01.42.01.91.02,1.47.03.55.01,1.11.02,1.68.03.56.01,1.08.03,1.56.04v-.95c0-.89-.05-1.59-.16-2.09-.11-.5-.33-.88-.67-1.13-.34-.25-.81-.4-1.41-.47-.6-.07-1.4-.1-2.39-.1-.43,0-.95.02-1.54.04s-1.17.07-1.73.12c-.56.05-1.01.1-1.35.16v-1.96c.75-.14,1.6-.24,2.54-.31s1.91-.1,2.92-.1c1.07,0,1.97.06,2.71.19.74.13,1.34.33,1.81.61.46.28.82.64,1.05,1.1.24.46.4,1.01.49,1.66.09.65.13,1.41.13,2.28v9.52h-2.16l-.09-2.13h-.18c-.32.69-.77,1.21-1.35,1.56-.58.35-1.22.57-1.91.67-.69.1-1.35.15-1.99.15ZM118.9,239.03c.57,0,1.11-.03,1.6-.1.49-.07.93-.2,1.3-.4.38-.2.67-.49.89-.89.22-.41.37-.86.46-1.35.09-.48.13-1.05.13-1.71v-.77h-5.04c-.77,0-1.36.06-1.78.18-.42.12-.7.37-.85.74-.15.38-.22.94-.22,1.69s.09,1.28.27,1.66c.18.38.52.63,1.02.76.5.13,1.24.19,2.21.19Z"/>
      <path d="M135.77,241.02c-1.09,0-1.99-.12-2.71-.36-.72-.24-1.29-.65-1.71-1.23s-.71-1.38-.89-2.39c-.18-1.01-.27-2.27-.27-3.8s.08-2.82.25-3.84c.17-1.02.46-1.81.87-2.39.42-.57.98-.98,1.69-1.23.71-.25,1.61-.37,2.7-.37.81,0,1.53.06,2.16.19.63.13,1.18.35,1.65.67.46.32.83.75,1.11,1.3h.15v-8.84h2.43v22.03h-2.16l-.12-2.16h-.18c-.28.69-.68,1.21-1.2,1.56-.52.35-1.11.57-1.76.68-.65.11-1.32.16-2.02.16ZM136.72,238.88c1.01,0,1.81-.14,2.4-.41s1.01-.71,1.25-1.3c.2-.55.32-1.16.36-1.81.04-.65.06-1.42.06-2.31,0-.73-.02-1.4-.06-2-.04-.6-.15-1.13-.33-1.59-.26-.67-.68-1.15-1.28-1.44s-1.41-.43-2.46-.43c-.89,0-1.6.06-2.13.18-.53.12-.94.37-1.22.76-.28.39-.46.95-.56,1.69-.1.74-.15,1.74-.15,3.01s.05,2.27.15,3.02c.1.75.29,1.32.56,1.69.28.38.69.63,1.23.76.54.13,1.27.19,2.18.19Z"/>
      <path d="M154.48,241.02c-1.23,0-2.25-.08-3.07-.24-.82-.16-1.48-.42-1.97-.79-.49-.37-.87-.85-1.13-1.45-.26-.6-.43-1.34-.5-2.21-.08-.87-.12-1.9-.12-3.08,0-1.4.06-2.6.18-3.6.12-1,.39-1.81.82-2.43.42-.62,1.09-1.08,2-1.36.91-.29,2.13-.43,3.68-.43,1.17,0,2.12.09,2.86.27.74.18,1.33.46,1.76.83.43.38.76.88.96,1.5.21.62.34,1.36.4,2.22.06.86.09,1.85.09,2.98v.8h-10.35c0,1.03.05,1.87.15,2.52.1.65.3,1.16.61,1.51.31.36.79.6,1.45.74.66.14,1.57.21,2.71.21.47,0,1-.02,1.57-.04.57-.03,1.15-.07,1.72-.13.57-.06,1.09-.12,1.54-.18v1.96c-.42.08-.92.15-1.53.21-.6.06-1.24.11-1.9.15-.66.04-1.31.06-1.94.06ZM158.1,232.8v-.8c0-1.03-.06-1.84-.18-2.45-.12-.6-.32-1.06-.61-1.36-.29-.31-.68-.51-1.17-.61-.49-.1-1.11-.15-1.84-.15-.95,0-1.7.06-2.25.19-.55.13-.97.36-1.25.7-.28.34-.46.82-.56,1.45-.1.63-.15,1.47-.15,2.52h8.57l-.56.5Z"/>
      <path d="M164.89,240.78v-15.12h2.16l.12,2.91h.18c.26-.85.62-1.5,1.1-1.96.47-.45,1.05-.77,1.72-.93.67-.17,1.41-.25,2.22-.25v2.37c-1.36,0-2.41.22-3.14.65-.73.43-1.24,1.11-1.51,2.02-.28.91-.42,2.06-.42,3.44v6.88h-2.43Z"/>
      <path d="M183.15,240.78v-20.4h13.25v2.19h-10.7v6.79h9.31v2.22h-9.31v7h10.7v2.19h-13.25Z"/>
      <path d="M198.95,240.78l5.72-7.68-5.52-7.44h2.76l4.18,5.63h.18l4.21-5.63h2.64l-5.49,7.41,5.72,7.71h-2.79l-4.39-5.87h-.18l-4.39,5.87h-2.67Z"/>
      <path d="M216.81,246.68v-21.02h2.19l.09,2.16h.18c.3-.67.7-1.19,1.22-1.54.51-.36,1.1-.59,1.75-.7.65-.11,1.32-.16,2.02-.16,1.09,0,1.99.12,2.71.36.72.24,1.29.65,1.71,1.23.42.58.71,1.38.89,2.39.18,1.01.27,2.27.27,3.8s-.08,2.82-.25,3.84c-.17,1.02-.46,1.81-.87,2.39-.42.57-.98.98-1.69,1.23s-1.61.37-2.7.37c-.81,0-1.53-.06-2.16-.19s-1.18-.35-1.65-.67c-.46-.32-.84-.75-1.11-1.3h-.15v7.83h-2.43ZM223.3,238.85c.91,0,1.64-.06,2.18-.18.54-.12.95-.37,1.23-.76.28-.39.46-.95.56-1.69.1-.74.15-1.74.15-3.01s-.05-2.27-.15-3.02c-.1-.75-.29-1.31-.56-1.69-.28-.38-.69-.63-1.23-.76-.54-.13-1.27-.19-2.18-.19-1.01,0-1.8.14-2.39.43-.58.29-1,.74-1.26,1.35-.2.47-.32,1.04-.36,1.69-.04.65-.06,1.38-.06,2.19s.02,1.56.06,2.18c.04.62.14,1.14.3,1.56.28.69.71,1.18,1.3,1.47.59.29,1.39.43,2.4.43Z"/>
      <path d="M240.47,241.02c-1.23,0-2.25-.08-3.07-.24-.82-.16-1.48-.42-1.97-.79-.49-.37-.87-.85-1.13-1.45-.26-.6-.43-1.34-.5-2.21-.08-.87-.12-1.9-.12-3.08,0-1.4.06-2.6.18-3.6.12-1,.39-1.81.82-2.43.42-.62,1.09-1.08,2-1.36.91-.29,2.13-.43,3.68-.43,1.17,0,2.12.09,2.86.27.74.18,1.33.46,1.76.83.43.38.76.88.96,1.5.21.62.34,1.36.4,2.22.06.86.09,1.85.09,2.98v.8h-10.35c0,1.03.05,1.87.15,2.52.1.65.3,1.16.61,1.51.31.36.79.6,1.45.74.66.14,1.57.21,2.71.21.47,0,1-.02,1.57-.04.57-.03,1.15-.07,1.72-.13.57-.06,1.09-.12,1.54-.18v1.96c-.42.08-.92.15-1.53.21-.6.06-1.24.11-1.9.15-.66.04-1.31.06-1.94.06ZM244.09,232.8v-.8c0-1.03-.06-1.84-.18-2.45-.12-.6-.32-1.06-.61-1.36-.29-.31-.68-.51-1.17-.61-.49-.1-1.11-.15-1.84-.15-.95,0-1.7.06-2.25.19-.55.13-.97.36-1.25.7-.28.34-.46.82-.56,1.45-.1.63-.15,1.47-.15,2.52h8.57l-.56.5Z"/>
      <path d="M250.88,240.78v-15.12h2.16l.12,2.91h.18c.26-.85.62-1.5,1.1-1.96.47-.45,1.05-.77,1.72-.93.67-.17,1.41-.25,2.22-.25v2.37c-1.36,0-2.41.22-3.14.65-.73.43-1.24,1.11-1.51,2.02-.28.91-.42,2.06-.42,3.44v6.88h-2.43Z"/>
      <path d="M261.7,221.39v-2.64h2.58v2.64h-2.58ZM261.76,240.78v-15.12h2.43v15.12h-2.43Z"/>
      <path d="M275.46,241.02c-1.23,0-2.25-.08-3.07-.24-.82-.16-1.48-.42-1.97-.79-.49-.37-.87-.85-1.13-1.45-.26-.6-.43-1.34-.5-2.21-.08-.87-.12-1.9-.12-3.08,0-1.4.06-2.6.18-3.6.12-1,.39-1.81.82-2.43.42-.62,1.09-1.08,2-1.36.91-.29,2.13-.43,3.68-.43,1.17,0,2.12.09,2.86.27.74.18,1.33.46,1.76.83.43.38.76.88.96,1.5.21.62.34,1.36.4,2.22.06.86.09,1.85.09,2.98v.8h-10.35c0,1.03.05,1.87.15,2.52.1.65.3,1.16.61,1.51.31.36.79.6,1.45.74.66.14,1.57.21,2.71.21.47,0,1-.02,1.57-.04.57-.03,1.15-.07,1.72-.13.57-.06,1.09-.12,1.54-.18v1.96c-.42.08-.92.15-1.53.21-.6.06-1.24.11-1.9.15-.66.04-1.31.06-1.94.06ZM279.07,232.8v-.8c0-1.03-.06-1.84-.18-2.45-.12-.6-.32-1.06-.61-1.36-.29-.31-.68-.51-1.17-.61-.49-.1-1.11-.15-1.84-.15-.95,0-1.7.06-2.25.19-.55.13-.97.36-1.25.7-.28.34-.46.82-.56,1.45-.1.63-.15,1.47-.15,2.52h8.57l-.56.5Z"/>
      <path d="M285.86,240.78v-15.12h2.19l.09,2.16h.18c.22-.47.52-.89.9-1.25.39-.36.91-.64,1.57-.84.66-.21,1.51-.31,2.54-.31,1.13,0,2.03.12,2.7.36.67.24,1.19.59,1.56,1.07.37.47.61,1.08.73,1.82s.18,1.63.18,2.65v9.46h-2.4v-8.63c0-1.03-.04-1.84-.13-2.45-.09-.6-.26-1.06-.52-1.36-.26-.31-.63-.51-1.13-.61-.49-.1-1.15-.15-1.96-.15-.97,0-1.73.12-2.28.37-.55.25-.96.6-1.22,1.07-.26.46-.42,1.03-.47,1.69-.06.66-.09,1.42-.09,2.27v7.8h-2.43Z"/>
      <path d="M309.14,241.02c-1.15,0-2.09-.1-2.83-.3-.74-.2-1.33-.49-1.78-.89s-.78-.9-.99-1.51c-.22-.61-.36-1.34-.43-2.19-.07-.85-.1-1.82-.1-2.91s.04-2.11.13-2.96c.09-.85.26-1.59.5-2.21.25-.62.59-1.12,1.04-1.5.44-.38,1.02-.66,1.73-.84s1.59-.28,2.64-.28c.69,0,1.42.03,2.18.1.76.07,1.39.16,1.88.28v1.96c-.45-.08-1.01-.15-1.68-.21-.66-.06-1.26-.09-1.79-.09-.93,0-1.68.08-2.24.24-.56.16-.99.45-1.28.86-.29.42-.48,1-.58,1.75-.1.75-.15,1.72-.15,2.91s.05,2.19.15,2.95c.1.76.3,1.34.61,1.75.31.41.74.68,1.3.83.56.15,1.31.22,2.24.22.55,0,1.16-.03,1.81-.09.65-.06,1.24-.13,1.75-.21v1.96c-.49.1-1.13.19-1.9.27-.77.08-1.51.12-2.22.12Z"/>
      <path d="M323.43,241.02c-1.23,0-2.25-.08-3.07-.24-.82-.16-1.48-.42-1.97-.79-.49-.37-.87-.85-1.13-1.45-.26-.6-.43-1.34-.5-2.21-.08-.87-.12-1.9-.12-3.08,0-1.4.06-2.6.18-3.6.12-1,.39-1.81.82-2.43.42-.62,1.09-1.08,2-1.36.91-.29,2.13-.43,3.68-.43,1.17,0,2.12.09,2.86.27.74.18,1.33.46,1.76.83.43.38.76.88.96,1.5.21.62.34,1.36.4,2.22.06.86.09,1.85.09,2.98v.8h-10.35c0,1.03.05,1.87.15,2.52.1.65.3,1.16.61,1.51.31.36.79.6,1.45.74.66.14,1.57.21,2.71.21.47,0,1-.02,1.57-.04.57-.03,1.15-.07,1.72-.13.57-.06,1.09-.12,1.54-.18v1.96c-.42.08-.92.15-1.53.21-.6.06-1.24.11-1.9.15-.66.04-1.31.06-1.94.06ZM327.05,232.8v-.8c0-1.03-.06-1.84-.18-2.45-.12-.6-.32-1.06-.61-1.36-.29-.31-.68-.51-1.17-.61-.49-.1-1.11-.15-1.84-.15-.95,0-1.7.06-2.25.19-.55.13-.97.36-1.25.7-.28.34-.46.82-.56,1.45-.1.63-.15,1.47-.15,2.52h8.57l-.56.5Z"/>
    </g>
    <g>
      <path d="M334.98,226.45c-.28,0-.59,0-.92-.02-.33-.02-.66-.03-.97-.06-.31-.02-.6-.05-.86-.08v-.83c.27.02.56.05.86.07.3.02.59.04.87.06.28.02.52.02.72.02.4,0,.72-.02.97-.05.24-.03.45-.1.61-.2.11-.07.2-.16.25-.27s.09-.25.1-.4c.01-.15.02-.31.02-.49,0-.26,0-.47-.02-.62-.02-.16-.06-.28-.12-.37-.06-.09-.17-.15-.31-.19-.14-.04-.34-.07-.58-.1l-1.94-.22c-.36-.05-.65-.12-.87-.23-.22-.11-.38-.25-.49-.42-.11-.17-.18-.37-.22-.61-.04-.24-.06-.51-.06-.8,0-.48.06-.86.19-1.15.12-.29.31-.51.55-.66.24-.15.54-.25.88-.3.34-.05.74-.07,1.19-.07.29,0,.58,0,.89.02.3.02.59.04.86.06.27.03.49.06.66.1v.81c-.2-.03-.42-.06-.68-.08s-.52-.04-.79-.05c-.27-.01-.52-.02-.77-.02-.42,0-.75.02-1.01.06-.26.04-.46.11-.61.2-.17.1-.27.24-.31.41-.04.18-.06.39-.06.64,0,.3.02.52.06.69.04.16.13.28.27.34.14.06.35.11.63.14l1.9.22c.27.02.51.06.72.11.21.05.39.13.54.24.15.11.26.28.34.49.05.11.08.22.1.35s.04.27.05.43c.01.16.02.33.02.52,0,.43-.04.79-.12,1.07-.08.28-.2.51-.35.68s-.34.29-.56.37c-.22.08-.46.14-.73.16s-.56.03-.87.03Z"/>
      <path d="M339.79,226.36v-7.81h1.32l2.67,6.22h.06l2.66-6.22h1.32v7.81h-.95v-6.24h-.05l-2.67,6.24h-.72l-2.67-6.24h-.05v6.24h-.92Z"/>
    </g>
    <g>
      <path d="M320.67,18.38c-.28,0-.59,0-.92-.02-.33-.02-.66-.03-.97-.06-.31-.02-.6-.05-.86-.08v-.83c.27.02.56.05.86.07.3.02.59.04.87.06.28.02.52.02.72.02.4,0,.72-.02.97-.05.24-.03.45-.1.61-.2.11-.07.2-.16.25-.27s.09-.25.1-.4c.01-.15.02-.31.02-.49,0-.26,0-.47-.02-.62-.02-.16-.06-.28-.12-.37-.06-.09-.17-.15-.31-.19-.14-.04-.34-.07-.58-.1l-1.94-.22c-.36-.05-.65-.12-.87-.23-.22-.11-.38-.25-.49-.42-.11-.17-.18-.37-.22-.61-.04-.24-.06-.51-.06-.8,0-.48.06-.86.19-1.15.12-.29.31-.51.55-.66.24-.15.54-.25.88-.3.34-.05.74-.07,1.19-.07.29,0,.58,0,.89.02.3.02.59.04.86.06.27.03.49.06.66.1v.81c-.2-.03-.42-.06-.68-.08s-.52-.04-.79-.05c-.27-.01-.52-.02-.77-.02-.42,0-.75.02-1.01.06-.26.04-.46.11-.61.2-.17.1-.27.24-.31.41-.04.18-.06.39-.06.64,0,.3.02.52.06.69.04.16.13.28.27.34.14.06.35.11.63.14l1.9.22c.27.02.51.06.72.11.21.05.39.13.54.24.15.11.26.28.34.49.05.11.08.22.1.35s.04.27.05.43c.01.16.02.33.02.52,0,.43-.04.79-.12,1.07-.08.28-.2.51-.35.68s-.34.29-.56.37c-.22.08-.46.14-.73.16s-.56.03-.87.03Z"/>
      <path d="M325.48,18.29v-7.81h1.32l2.67,6.22h.06l2.66-6.22h1.32v7.81h-.95v-6.24h-.05l-2.67,6.24h-.72l-2.67-6.24h-.05v6.24h-.92Z"/>
    </g>
  </g>
</svg>