<?xml version="1.0" encoding="UTF-8"?>
<svg id="Layer_2" data-name="Layer 2" xmlns="http://www.w3.org/2000/svg" viewBox="0 0 246.18 50.14">
  <defs>
    <style>
      .cls-1 {
        fill: #0eb2af;
      }

      .cls-2 {
        fill: #1f476a;
      }
    </style>
  </defs>
  <g id="Layer_1-2" data-name="Layer 1">
    <g>
      <path class="cls-2" d="M172.56,27.84c-.03,3.29-.44,6.23-1.2,8.72-.75,2.33-2.05,4.56-3.85,6.61-2.49,2.79-5.4,4.77-8.67,5.87-.23.07-.47.15-.71.22-.55.16-1.12.3-1.68.42-1.48.3-3.07.46-4.72.46-3.27,0-6.32-.62-9.08-1.85-2.53-1.12-4.89-2.78-7.02-4.94-4.52-4.6-6.72-9.97-6.72-16.41s2.24-12,6.84-16.58c4.6-4.6,10.04-6.83,16.64-6.83,3.14,0,6.13.58,8.86,1.71l-1.31,2.74c-2.31-1-4.8-1.51-7.42-1.51-5.69,0-10.54,2-14.39,5.92-3.87,3.87-5.83,8.76-5.83,14.55s2.19,11.01,6.51,14.91c1.69,1.51,3.46,2.72,5.28,3.59,2.51,1.21,5.16,1.81,7.89,1.81.46,0,.92-.01,1.36-.05,3.53-.27,6.76-1.62,9.62-4.02l.08-.07c3.28-2.8,5.13-6.22,5.52-10.16l.21-2.2h-6.39l1.4-2.91h8.78Z"/>
      <polygon class="cls-2" points="220.02 48.51 216.6 48.53 199.28 12.3 181.74 48.68 178.23 48.7 199.26 5.08 220.02 48.51"/>
      <polygon class="cls-1" points="202.4 37.71 195.93 37.74 199.19 30.99 202.4 37.71"/>
      <polygon class="cls-2" points="84.7 48.52 81.28 48.53 63.97 12.3 46.42 48.68 42.91 48.7 63.95 5.08 84.7 48.52"/>
      <path class="cls-2" d="M106.28,29.05l10.27,20.16h-3.31l-6.45-12.56-4.68-9.79h1.5c1.59,0,2.95-.12,4.13-.36,5.37-1.03,8.32-4.44,8.32-9.62,0-3.08-1.07-5.47-3.18-7.1-2.02-1.59-4.89-2.37-8.79-2.4h-19.17l-1.39-2.9h19.01c1.53,0,2.91.07,4.24.21,2.58.27,4.76.83,6.44,1.65.75.38,1.41.81,1.97,1.28,2.71,2.32,4.03,5.32,4.03,9.16,0,3.03-.83,5.54-2.52,7.66-1.67,2.1-3.92,3.46-6.69,4.06l-3.73.55Z"/>
      <polygon class="cls-2" points="45.35 4.46 43.94 7.38 21.9 7.38 21.9 49.22 18.54 49.22 18.54 7.38 0 7.38 1.4 4.47 45.35 4.46"/>
      <path class="cls-1" d="M232.22,0l-7.73,16.61h2.54l1.74-3.79.98-2.22,2.43-5.31,2.32,5.31.96,2.22,1.64,3.79h2.58l-7.46-16.61Z"/>
      <rect class="cls-1" x="243.82" y=".99" width="2.36" height="15.63"/>
      <polygon class="cls-1" points="67.03 37.71 60.56 37.74 63.81 30.99 67.03 37.71"/>
    </g>
  </g>
</svg>